<?xml version="1.0" standalone="no"?>
<!DOCTYPE svg PUBLIC "-//W3C//DTD SVG 1.1//EN" "http://www.w3.org/Graphics/SVG/1.1/DTD/svg11.dtd" >
<svg xmlns="http://www.w3.org/2000/svg">
<metadata>
<json>
{
	"fontFamily": "TheResumator",
	"majorVersion": 2,
	"minorVersion": 0,
	"fontURL": "http://www.jazz.co",
	"description": "JAZZ Icon Font\nFont generated by IcoMoon.",
	"copyright": "2015 Jazz",
	"designerURL": "http://www.jazz.co",
	"version": "Version 2.0",
	"fontId": "TheResumator",
	"psName": "TheResumator",
	"subFamily": "Regular",
	"fullName": "TheResumator"
}
</json>
</metadata>
<defs>
<font id="TheResumator" horiz-adv-x="512">
<font-face units-per-em="512" ascent="469.76" descent="-42.24" />
<missing-glyph horiz-adv-x="512" />
<glyph unicode="&#x20;" d="" horiz-adv-x="256" />
<glyph unicode="&#xe600;" d="M480.8 336.533c-12.8 21.6-36.8 34.4-56.8 41.6-0.8 0-0.8 0-1.6 0.8 0 1.6-0.8 4-0.8 6.4 0 0.8 0 0.8 0 1.6v10.4c0 26.4-21.6 48-48 48h-234.4c-26.4 0-48-21.6-48-48v-11.2c0-0.8 0-1.6 0-1.6-0.8-2.4-0.8-4.8-0.8-6.4-0.8 0-0.8 0-1.6-0.8-20-7.2-44-20-56.8-41.6-7.2-12.8-13.6-33.6-2.4-61.6 16.8-40.8 66.4-68.8 113.6-85.6 19.2-27.2 41.6-48 67.2-59.2v0c0 0 21.6-83.2-86.4-83.2-17.6 0-32.8-14.4-32.8-32.8v0c0-17.6 14.4-32.8 32.8-32.8h264.8c17.6 0 32.8 14.4 32.8 32.8 0 17.6-14.4 32.8-32.8 32.8v0c-108 0-86.4 83.2-86.4 83.2v0c25.6 11.2 48.8 32 67.2 59.2 47.2 17.6 96.8 44.8 113.6 85.6 11.2 28.8 4.8 49.6-2.4 62.4zM60.8 287.733c-4.8 12.8-4.8 23.2 0 32 5.6 9.6 17.6 17.6 29.6 22.4 0.8 0 0.8 0 1.6 0.8v-0.8c0-1.6 0.8-2.4 0.8-4 3.2-36.8 11.2-71.2 23.2-100.8-24.8 13.6-46.4 29.6-55.2 50.4zM312.8 311.733l-9.6-8.8c-7.2-6.4-12-20-10.4-28.8l1.6-13.6c1.6-9.6-4.8-13.6-12.8-8.8l-11.2 6.4c-8 4.8-22.4 5.6-31.2 0.8l-12-5.6c-8.8-4-14.4 0-12 9.6l2.4 12.8c1.6 9.6-1.6 23.2-8.8 29.6l-9.6 9.6c-6.4 7.2-4 13.6 5.6 14.4l13.6 1.6c9.6 0.8 20.8 8.8 25.6 17.6l6.4 12c4.8 8.8 11.2 8 15.2-0.8l5.6-12c4-8.8 15.2-17.6 24.8-19.2l12.8-2.4c8.8-0.8 11.2-7.2 4-14.4zM451.2 287.733c-8-20-29.6-36.8-55.2-49.6 12 29.6 20.8 64 24 100.8 0 1.6 0.8 2.4 0.8 4v0.8c0.8 0 0.8 0 1.6-0.8 12-5.6 24-12.8 29.6-22.4 4-10.4 4-20.8-0.8-32.8z" data-tags="achievements" />
<glyph unicode="&#xe601;" d="M444 206.133h-2.4v77.6c0 22.4-18.4 40-40 40h-133.6v21.6c27.2 5.6 48 29.6 48 58.4 0 32.8-27.2 60-60 60s-60-27.2-60-60c0-28.8 20.8-52.8 48-58.4v-21.6h-133.6c-22.4 0-40-18.4-40-40v-77.6h-2.4c-22.4 0-40-18.4-40-40v-42.4c0-22.4 18.4-40 40-40h2.4v-61.6c0-22.4 18.4-40 40-40h63.2c7.2-11.2 20-18.4 33.6-18.4h96c14.4 0 26.4 7.2 33.6 18.4h63.2c22.4 0 40 18.4 40 40v61.6h2.4c22.4 0 40 18.4 40 40v42.4c2.4 21.6-16 40-38.4 40zM220 403.733c0 20 16 36 36 36s36-16 36-36c0-15.2-9.6-28.8-23.2-33.6v4c0 6.4-5.6 12-12 12s-12-5.6-12-12v-4c-14.4 5.6-24.8 18.4-24.8 33.6zM102.4 196.533c0 32 26.4 58.4 58.4 58.4s58.4-26.4 58.4-58.4-26.4-58.4-58.4-58.4c-32-0.8-58.4 25.6-58.4 58.4zM348 20.533h-184c-22.4 0-40 18.4-40 40 0 22.4 18.4 40 40 40h184.8c22.4 0 40-18.4 40-40s-18.4-40-40.8-40zM350.4 137.333c-32 0-58.4 26.4-58.4 58.4s26.4 58.4 58.4 58.4c32 0 58.4-26.4 58.4-58.4s-25.6-58.4-58.4-58.4z" data-tags="autonomy" />
<glyph unicode="&#xe602;" d="M60.8 246.933c0 7.2 6.4 13.6 14.4 13.6h136c4.8 0.8 9.6 1.6 14.4 1.6h112v108.8c0 27.2-23.2 49.6-51.2 49.6h-224c-28 0-51.2-22.4-51.2-49.6v-195.2c0-27.2 23.2-49.6 51.2-49.6h84v52.8h-71.2c-8 0-14.4 6.4-14.4 13.6s6.4 13.6 14.4 13.6h74.4c3.2 10.4 8 19.2 14.4 27.2h-88.8c-8 0-14.4 6.4-14.4 13.6zM75.2 368.533h198.4c8 0 14.4-6.4 14.4-13.6s-6.4-13.6-14.4-13.6h-198.4c-8 0-14.4 6.4-14.4 13.6s6.4 13.6 14.4 13.6zM75.2 314.933h198.4c8 0 14.4-6.4 14.4-13.6s-6.4-13.6-14.4-13.6h-198.4c-8 0-14.4 6.4-14.4 13.6s6.4 13.6 14.4 13.6zM449.6 234.933h-224c-4 0-8-0.8-11.2-1.6-15.2-3.2-28-13.6-35.2-27.2-3.2-6.4-4.8-13.6-4.8-20.8v-92.8c0-27.2 23.2-49.6 51.2-49.6h127.2l28.8-27.2 7.2-6.4c5.6-4.8 14.4-4.8 19.2 0l7.2 6.4 28.8 27.2h7.2c28 0 51.2 22.4 51.2 49.6v92.8c-1.6 27.2-24.8 49.6-52.8 49.6zM346.4 96.533h-108c-8 0-14.4 6.4-14.4 13.6s6.4 13.6 14.4 13.6h108c8 0 14.4-6.4 14.4-13.6s-6.4-13.6-14.4-13.6zM436.8 150.133h-198.4c-8 0-14.4 6.4-14.4 13.6s6.4 13.6 14.4 13.6h198.4c8 0 14.4-6.4 14.4-13.6s-6.4-13.6-14.4-13.6z" data-tags="communication" />
<glyph unicode="&#xe603;" d="M420.8 142.933c-7.2 7.2-20.8 7.2-28 0l-22.4-22.4c-10.4-10.4-24-16-39.2-16-7.2 0-14.4 1.6-20.8 4s-12.8 6.4-17.6 12l-22.4 22.4c-7.2 7.2-20.8 7.2-28 0l-22.4-22.4c-10.4-10.4-24.8-16-39.2-16-7.2 0-14.4 1.6-21.6 4-6.4 2.4-12.8 6.4-18.4 12l-22.4 22.4c-7.2 7.2-20.8 7.2-28 0l-22.4-22.4c-3.2-3.2-6.4-5.6-9.6-8v-119.2c0-14.4 11.2-25.6 25.6-25.6h340.8c14.4 0 25.6 11.2 25.6 25.6v120c-3.2 2.4-6.4 4.8-9.6 8l-20 21.6zM481.6 204.533v0 18.4c0 15.2-12 27.2-27.2 27.2h-56v18.4c0 12.8-10.4 24-24 24-12.8 0-24-10.4-24-24v-18.4h-70.4v60c0 12.8-10.4 24-24 24-12.8 0-24-10.4-24-24v-60h-71.2v18.4c0 12.8-10.4 24-24 24-12.8 0-24-10.4-24-24v-18.4h-56c-15.2 0-27.2-12-27.2-27.2v-16c0-0.8 0-1.6 0-2.4 0-12 0-50.4 0-64.8 0.8 0 0.8 0 1.6 0 5.6 0.8 10.4 3.2 14.4 7.2 3.2 3.2 7.2 7.2 10.4 10.4 6.4 6.4 12 12.8 20 17.6 12.8 8 28.8 10.4 44 6.4 8.8-2.4 16-6.4 23.2-12.8 2.4-2.4 4.8-4.8 6.4-6.4 5.6-5.6 11.2-11.2 16.8-17.6 5.6-5.6 15.2-7.2 22.4-4 4 1.6 6.4 4.8 8.8 7.2 6.4 6.4 12 12 18.4 18.4 11.2 11.2 27.2 17.6 44 16.8 13.6-0.8 26.4-7.2 36-17.6 6.4-6.4 12.8-12.8 19.2-19.2 3.2-3.2 7.2-6.4 12-7.2 6.4-0.8 13.6 0.8 17.6 5.6 6.4 6.4 12 12 18.4 18.4 3.2 3.2 5.6 5.6 9.6 8.8 7.2 5.6 16 8.8 25.6 10.4 8.8 0.8 16.8 0 24.8-2.4 3.2-0.8 5.6-1.6 8-3.2 2.4-0.8 4.8-2.4 7.2-4 0.8-1.6 3.2-2.4 4-3.2s1.6-1.6 3.2-2.4c1.6-1.6 3.2-3.2 4.8-4.8s4-4 5.6-5.6c3.2-3.2 6.4-6.4 10.4-10.4s8.8-7.2 15.2-7.2c0 7.2 0 52.8 0 65.6zM136.8 331.733c16.8 0 29.6 13.6 29.6 29.6 0 16.8-29.6 64-29.6 64s-29.6-48-29.6-64c0-16 13.6-29.6 29.6-29.6zM256 365.333c16 0 29.6 13.6 29.6 29.6 0 16.8-29.6 64-29.6 64s-29.6-48-29.6-64c0-16 12.8-29.6 29.6-29.6zM375.2 331.733c16.8 0 29.6 13.6 29.6 29.6 0 16.8-29.6 64-29.6 64s-29.6-48-29.6-64c-0.8-16 12.8-29.6 29.6-29.6z" data-tags="culture" />
<glyph unicode="&#xe604;" d="M214.4 136.533c5.6 0 12 0.8 17.6 2.4l24 6.4 24-6.4c5.6-1.6 11.2-2.4 17.6-2.4 19.2 0 37.6 7.2 51.2 20.8l0.8 0.8c38.4 38.4 60 88.8 60 143.2 0 53.6-44 97.6-98.4 97.6-15.2 0-29.6-1.6-44-5.6h-2.4v1.6c0 21.6 12 40.8 31.2 50.4l-8 16c-15.2-7.2-27.2-20-34.4-34.4-14.4 22.4-40 35.2-66.4 35.2-8.8 0-18.4-1.6-26.4-4.8l-11.2-4 6.4-9.6c15.2-22.4 40.8-36 68-36 8.8 0 17.6 1.6 26.4 4-1.6-5.6-2.4-11.2-2.4-17.6v-1.6l-2.4 0.8c-14.4 4-29.6 5.6-44 5.6-54.4 0-98.4-44-98.4-97.6s22.4-106.4 60.8-144c12.8-13.6 31.2-20.8 50.4-20.8zM439.2-1.867h-310.4c-21.6 0-39.2 17.6-39.2 39.2s17.6 39.2 39.2 39.2h310.4c9.6 0 16.8 7.2 16.8 16.8s-7.2 16.8-16.8 16.8h-310.4c-40.8 0-73.6-32.8-73.6-73.6s32.8-73.6 73.6-73.6h310.4c9.6 0 16.8 7.2 16.8 16.8s-7.2 18.4-16.8 18.4zM439.2 50.933h-303.2c-7.2 0-12.8-5.6-12.8-12.8s5.6-12.8 12.8-12.8h303.2c7.2 0 12.8 5.6 12.8 12.8s-5.6 12.8-12.8 12.8z" data-tags="education" />
<glyph unicode="&#xe605;" d="M408 440.533h-304c-28.8 0-52.8-24-52.8-52.8v-349.6c0-28.8 24-52.8 52.8-52.8h304c28.8 0 52.8 24 52.8 52.8v349.6c0 29.6-23.2 52.8-52.8 52.8zM244 372.533h151.2c8 0 14.4-6.4 14.4-14.4s-6.4-14.4-14.4-14.4h-151.2c-8 0-14.4 6.4-14.4 14.4s6.4 14.4 14.4 14.4zM244 314.933h151.2c8 0 14.4-6.4 14.4-14.4s-6.4-14.4-14.4-14.4h-151.2c-8 0-14.4 6.4-14.4 14.4s6.4 14.4 14.4 14.4zM152 379.733c25.6 0 46.4-20.8 46.4-46.4s-20.8-46.4-46.4-46.4c-25.6 0-46.4 20.8-46.4 46.4s20.8 46.4 46.4 46.4zM320 54.133h-204c-8 0-14.4 6.4-14.4 14.4s6.4 14.4 14.4 14.4h204c8 0 14.4-6.4 14.4-14.4s-6.4-14.4-14.4-14.4zM396 111.733h-280c-8 0-14.4 6.4-14.4 14.4s6.4 14.4 14.4 14.4h279.2c8 0 14.4-6.4 14.4-14.4 0.8-8-5.6-14.4-13.6-14.4zM396 170.133h-280c-8 0-14.4 6.4-14.4 14.4s6.4 14.4 14.4 14.4h279.2c8 0 14.4-6.4 14.4-14.4 0.8-8-5.6-14.4-13.6-14.4zM396 227.733h-280c-8 0-14.4 6.4-14.4 14.4s6.4 14.4 14.4 14.4h279.2c8 0 14.4-6.4 14.4-14.4 0.8-8-5.6-14.4-13.6-14.4z" data-tags="experience" />
<glyph unicode="&#xe606;" d="M130.4 311.733l171.2 39.2 89.6 90.4c1.6 1.6 2.4 2.4 4 3.2l-281.6-63.2c-39.2-8.8-73.6-29.6-98.4-59.2 36.8-16 76.8-19.2 115.2-10.4zM185.6 382.933l52 12c4.8 0.8 9.6-2.4 11.2-7.2 1.6-5.6-2.4-9.6-7.2-11.2l-52-12h-0.8c-4.8-0.8-8.8 2.4-10.4 7.2-1.6 5.6 2.4 9.6 7.2 11.2zM63.2 112.533l40 40-4.8 4.8c-10.4-5.6-20-5.6-27.2 0-11.2 8-13.6 26.4-7.2 48 1.6 4.8-1.6 9.6-5.6 12l-15.2 5.6c-7.2-28-3.2-57.6 9.6-83.2l10.4-27.2zM281.6 14.933l-96 28.8-28-28c0 0-0.8-0.8-0.8-0.8l115.2-34.4c19.2-5.6 40-5.6 58.4 0.8-12.8 16-30.4 28-48.8 33.6zM374.4 44.533c-1.6 5.6-3.2 14.4-12.8 17.6-8.8 2.4-14.4-3.2-19.2-7.2-0.8 0-2.4-0.8-2.4-1.6 0 0.8-0.8 1.6-0.8 3.2-1.6 4-4 12.8-12.8 14.4-8.8 2.4-14.4-3.2-19.2-7.2-0.8-0.8-1.6-1.6-2.4-1.6 0 0.8-0.8 1.6-0.8 3.2-1.6 4-4 12.8-12.8 14.4-8.8 2.4-14.4-3.2-19.2-7.2-0.8-0.8-1.6-1.6-2.4-1.6 0 0.8-0.8 1.6-0.8 2.4-1.6 4-4 12.8-12.8 14.4-8.8 2.4-14.4-3.2-19.2-7.2-0.8-0.8-1.6-1.6-2.4-1.6 0 0.8-0.8 1.6-0.8 2.4-0.8 1.6-1.6 3.2-1.6 4.8l-12.8-12.8c1.6-4.8 4.8-10.4 12-12 8.8-2.4 14.4 3.2 19.2 7.2 0.8 0.8 1.6 1.6 2.4 1.6 0-0.8 0.8-1.6 0.8-3.2 1.6-4 4-12.8 12.8-14.4 8.8-2.4 14.4 3.2 19.2 7.2 0.8 0.8 1.6 1.6 2.4 1.6 0-0.8 0.8-1.6 0.8-3.2 1.6-4 4-12.8 12.8-14.4 8.8-2.4 14.4 3.2 19.2 7.2 0.8 0.8 1.6 1.6 2.4 2.4 0-0.8 0.8-1.6 0.8-3.2 1.6-4 4-12.8 12.8-14.4 8.8-2.4 14.4 3.2 19.2 7.2 0.8 0.8 0.8 0.8 1.6 1.6 0-0.8 0.8-2.4 0.8-3.2v-1.6c0.8-4 4-7.2 8.8-7.2 0.8 0 1.6 0 1.6 0 4 0.8 8 6.4 6.4 10.4l-0.8 1.6zM480 433.333v0c-12 12-26.4 17.6-40.8 17.6s-29.6-5.6-40.8-16.8l-330.4-330.4c-22.4-22.4-22.4-58.4 0-80.8l0.8-0.8c11.2-11.2 25.6-16.8 40.8-16.8s29.6 5.6 40.8 16.8l329.6 330.4c22.4 22.4 22.4 58.4 0 80.8zM115.2 54.933c-1.6-1.6-4.8-3.2-7.2-3.2s-4.8 0.8-7.2 3.2c-4 4-4 10.4 0 14.4 1.6 1.6 4.8 3.2 7.2 3.2s4.8-0.8 7.2-3.2c4-4 4-10.4 0-14.4zM447.2 386.933c-1.6-1.6-4.8-3.2-7.2-3.2s-4.8 0.8-7.2 3.2c-4 4-4 10.4 0 14.4 1.6 1.6 4.8 3.2 7.2 3.2s4.8-0.8 7.2-3.2c4-4 4-10.4 0-14.4z" data-tags="expertise" />
<glyph unicode="&#xe607;" d="M187.2 391.733l112.8-65.6c8.8-4.8 20-2.4 25.6 7.2 4.8 8.8 2.4 20-7.2 25.6l-112 65.6c-8.8 4.8-20 2.4-25.6-7.2-5.6-8.8-2.4-20 6.4-25.6zM84.8 214.133l112.8-64.8c8.8-4.8 20-2.4 25.6 7.2 4.8 8.8 2.4 20-7.2 25.6l-112.8 65.6c-8.8 4.8-20 2.4-25.6-7.2-4.8-9.6-1.6-20.8 7.2-26.4zM474.4 162.133l-206.4 108 23.2 40-112.8 65.6-65.6-112.8 112.8-65.6 23.2 40 196.8-124.8c13.6-8 30.4-3.2 38.4 10.4 8 14.4 4 31.2-9.6 39.2zM225.6 36.533h-2.4v28c0 9.6-8 17.6-17.6 17.6h-144.8c-9.6 0-17.6-8-17.6-17.6v-28h-2.4c-9.6 0-17.6-8-17.6-17.6v-1.6c0-9.6 8-17.6 17.6-17.6h184.8c9.6 0 17.6 8 17.6 17.6v1.6c0 9.6-8 17.6-17.6 17.6z" data-tags="judgment" />
<glyph unicode="&#xe608;" d="M506.4 222.133l-33.6 33.6c-16.8 88-86.4 158.4-175.2 175.2l-33.6 33.6c-4.8 4.8-12.8 4.8-16.8 0l-33.6-33.6c-88-17.6-157.6-87.2-175.2-175.2l-33.6-33.6c-4.8-4.8-4.8-12.8 0-16.8l33.6-33.6c16.8-88.8 86.4-158.4 175.2-176l33.6-33.6c4.8-4.8 12.8-4.8 16.8 0l33.6 33.6c88.8 16.8 159.2 87.2 176 176l33.6 33.6c4 4 4 12-0.8 16.8zM256 41.333c-94.4 0-172 76.8-172 172 0 94.4 76.8 172 172 172 94.4 0 172-76.8 172-172 0-94.4-77.6-172-172-172zM338.4 295.733c-1.6 1.6-4 3.2-7.2 4-2.4 0.8-5.6 0.8-8 0l-91.2-32.8c-5.6-1.6-11.2-5.6-16.8-12-11.2-11.2-16.8-24.8-16.8-40.8s5.6-29.6 16.8-40.8c11.2-11.2 24.8-16.8 40.8-16.8s29.6 5.6 40.8 16.8c5.6 5.6 9.6 11.2 12 16.8l32.8 91.2c0.8 2.4 0.8 4.8 0.8 8-0.8 2.4-1.6 4.8-4 6.4zM277.6 194.133c-5.6-5.6-12.8-8.8-20.8-8.8s-14.4 3.2-20.8 8.8c-5.6 5.6-8.8 12.8-8.8 20.8s3.2 15.2 8.8 20.8c5.6 5.6 12.8 8.8 20.8 8.8s14.4-3.2 20.8-8.8c5.6-5.6 8.8-12.8 8.8-20.8-0.8-8.8-3.2-15.2-8.8-20.8z" data-tags="leadership" />
<glyph unicode="&#xe609;" d="M128 246.133v-66.4c0-5.6 1.6-9.6 5.6-13.6s8.8-5.6 13.6-5.6h216c5.6 0 9.6 1.6 13.6 5.6s5.6 8.8 5.6 13.6v66.4c0 5.6-1.6 9.6-5.6 13.6s-8.8 5.6-13.6 5.6h-216c-5.6 0-9.6-1.6-13.6-5.6-3.2-3.2-5.6-8-5.6-13.6z" data-tags="na" />
<glyph unicode="&#xe60a;" d="M387.2 165.333h59.2c4.8 0 8.8 1.6 12.8 5.6 3.2 3.2 5.6 8 5.6 12.8v208.8c-0.8 4.8-2.4 9.6-5.6 12.8s-8 5.6-12.8 5.6h-59.2c-4.8 0-8.8-1.6-12.8-5.6-3.2-3.2-5.6-8-5.6-12.8v-209.6c0-4.8 1.6-8.8 5.6-12.8 4-3.2 8-4.8 12.8-4.8zM55.2 284.533c0-8.8 2.4-16.8 6.4-24 0 0 0 0 0 0-0.8-0.8-0.8-1.6-1.6-2.4s-0.8-1.6-1.6-1.6-0.8-1.6-1.6-1.6c0-1.6-0.8-3.2-1.6-4 0 0 0 0 0 0-4.8-8.8-7.2-18.4-7.2-28.8 0-13.6 4.8-25.6 15.2-35.2 9.6-9.6 21.6-15.2 35.2-15.2h101.6c-24.8-52-4.8-114.4 8.8-162.4 5.6-20 26.4-31.2 45.6-26.4 20 5.6 13.6 17.6 10.4 37.6-11.2 72 32.8 112.8 69.6 145.6 0 0 0 0 0 0 1.6 1.6 3.2 3.2 4.8 5.6 0 0.8 0.8 0.8 0.8 1.6 1.6 2.4 2.4 5.6 2.4 8.8 0 0 0 0.8 0 0.8s0 0 0 0.8v206.4c0 4.8-1.6 8.8-4.8 12-1.6 1.6-2.4 2.4-4 3.2v0c0 0 0 0-0.8 0-0.8 0.8-1.6 0.8-2.4 0.8-24 9.6-178.4 69.6-228 20 0 0 0 0 0 0-1.6-1.6-4-3.2-5.6-5.6-10.4-12-14.4-28-12.8-47.2-4-4-7.2-8.8-9.6-13.6-4-7.2-6.4-15.2-6.4-24 0 0 0-0.8 0-0.8 0-5.6 0-11.2 1.6-16-8.8-9.6-14.4-20.8-14.4-34.4zM327.2 161.333c0 0 0.8 0 0 0 0.8 0 0 0 0 0zM323.2 160.533c0 0 0.8 0 0.8 0s-0.8 0-0.8 0z" data-tags="no" />
<glyph unicode="&#xe60b;" d="M433.6 6.133h-44.8c-17.6 0-32.8 14.4-32.8 32.8v348.8c0 17.6 14.4 32.8 32.8 32.8h44.8c17.6 0 32.8-14.4 32.8-32.8v-348.8c0-18.4-15.2-32.8-32.8-32.8zM278.4 6.133h-44.8c-17.6 0-32.8 14.4-32.8 32.8v222.4c0 17.6 14.4 32.8 32.8 32.8h44.8c17.6 0 32.8-14.4 32.8-32.8v-222.4c0-18.4-15.2-32.8-32.8-32.8zM123.2 6.133h-44.8c-17.6 0-32.8 14.4-32.8 32.8v124c0 17.6 14.4 32.8 32.8 32.8h44.8c17.6 0 32.8-14.4 32.8-32.8v-124c-0.8-18.4-15.2-32.8-32.8-32.8z" data-tags="productivity" />
<glyph unicode="&#xe60c;" d="M328 154.933c-15.2 16.8-24 38.4-24 63.2 0 50.4 40 91.2 89.6 93.6-3.2 0.8-5.6 2.4-8.8 2.4 0 0 0 0 0 0l-89.6 12-40 79.2c-6.4 16-21.6 27.2-39.2 27.2-18.4 0-34.4-12-40-28.8l-37.6-77.6-87.2-11.2c0 0 0 0 0 0-21.6-1.6-38.4-20-38.4-41.6 0-13.6 6.4-26.4 16.8-33.6l60.8-60.8-15.2-81.6c0 0 0 0 0 0-1.6-4.8-2.4-9.6-2.4-14.4 0-20 13.6-36 32-40.8 2.4 16.8 8.8 36.8 20 56 10.4 19.2 24 35.2 36.8 46.4 15.2-11.2 34.4-18.4 54.4-18.4 20.8 0 39.2 7.2 54.4 18.4 8.8-7.2 17.6-16.8 24.8-27.2 9.6 13.6 20.8 27.2 32.8 37.6zM216 142.933c-41.6 0-75.2 33.6-75.2 75.2s33.6 75.2 75.2 75.2c41.6 0 75.2-33.6 75.2-75.2 0-40.8-33.6-75.2-75.2-75.2zM488.8 97.333c-10.4 19.2-24 35.2-36.8 46.4-15.2-11.2-34.4-18.4-54.4-18.4-17.6 0-34.4 4.8-48 13.6-2.4 1.6-4 2.4-6.4 4-12.8-10.4-25.6-25.6-36-44.8 0-0.8-0.8-0.8-0.8-1.6-24.8-44.8-28-91.2-6.4-103.2h195.2c21.6 12.8 19.2 58.4-6.4 104zM322.4 217.333c0-20.8 8.8-40 22.4-53.6s32-21.6 52.8-21.6c41.6 0 75.2 33.6 75.2 75.2 0 35.2-24.8 64.8-57.6 72.8-5.6 1.6-11.2 2.4-17.6 2.4-41.6 0-75.2-33.6-75.2-75.2z" data-tags="rolematch" />
<glyph unicode="&#xe60d;" d="M493.6 218.133c0 0 0 0 0 0 11.2 10.4 17.6 24 18.4 40 0 26.4-19.2 48-44.8 52 0 0 0 0 0 0l-112 15.2-49.6 99.2c-8 20-27.2 34.4-49.6 34.4-23.2 0-43.2-15.2-50.4-36l-47.2-97.6-110.4-15.2c0 0 0 0 0 0-27.2-2.4-48-24.8-48-52.8 0-17.6 8.8-32.8 21.6-42.4l76-76.8v-0.8l-18.4-100c0 0 0 0 0 0s0 0 0 0v-0.8c0 0 0 0 0 0-1.6-5.6-3.2-11.2-3.2-17.6 0-0.8 0-0.8 0-1.6 0-1.6 0-3.2 0.8-4.8 3.2-21.6 18.4-39.2 39.2-44 3.2 21.6 11.2 45.6 24.8 69.6 13.6 24.8 30.4 44 46.4 57.6 19.2-14.4 43.2-22.4 68.8-22.4s49.6 8.8 68.8 22.4c16.8-13.6 32.8-33.6 46.4-57.6s21.6-48.8 24.8-69.6c20.8 5.6 36.8 22.4 39.2 44 0 1.6 0 3.2 0.8 4.8 0 0.8 0 0.8 0 1.6 0 1.6 0 2.4 0 4 0 0 0 0 0 0s0 0.8 0 0.8c0 0 0 0 0 0l-20 114.4v0.8l77.6 79.2zM256 94.933c-52 0-94.4 42.4-94.4 94.4s42.4 94.4 94.4 94.4c52 0 94.4-42.4 94.4-94.4s-42.4-94.4-94.4-94.4z" data-tags="rolemodal" />
<glyph unicode="&#xe60e;" d="M460 90.933l-164.8 284.8c-21.6 37.6-56.8 37.6-78.4 0l-164.8-284.8c-21.6-37.6-4-68 39.2-68h328.8c44 0 61.6 30.4 40 68zM254.4 76.533c-13.6 0-24.8 10.4-24.8 24 0 12.8 11.2 24 24.8 24s24.8-11.2 24.8-24c0-13.6-11.2-24-24.8-24zM288.8 192.533c-10.4-11.2-19.2-22.4-19.2-41.6v-1.6c-0.8-7.2-7.2-13.6-15.2-13.6s-14.4 5.6-15.2 13.6v4c0 26.4 12.8 42.4 24.8 56 8.8 10.4 16 19.2 16 31.2 0 11.2-7.2 23.2-20.8 23.2-11.2 0-23.2-5.6-25.6-18.4 0.8-3.2 1.6-7.2 1.6-10.4 0-8.8-5.6-19.2-16-19.2-5.6 0-18.4 2.4-18.4 23.2 0 29.6 26.4 53.6 58.4 53.6 25.6 0 52.8-19.2 52.8-50.4 0-24.8-12-37.6-23.2-49.6z" data-tags="unsure" />
<glyph unicode="&#xe60f;" d="M124.8 261.333h-59.2c-4.8 0-8.8-1.6-12.8-5.6-3.2-3.2-5.6-8-5.6-12.8v-209.6c0.8-4 2.4-8.8 5.6-12s8-5.6 12.8-5.6h59.2c4.8 0 8.8 1.6 12.8 5.6 3.2 3.2 5.6 8 5.6 12.8v209.6c0 4.8-1.6 8.8-5.6 12.8-4 3.2-8 4.8-12.8 4.8zM456.8 142.133c0 8.8-2.4 16.8-6.4 24 0 0 0 0 0 0 0.8 0.8 0.8 1.6 1.6 2.4s0.8 1.6 1.6 1.6 0.8 1.6 1.6 1.6 1.6 2.4 1.6 3.2c0 0 0 0 0 0 4.8 8.8 7.2 18.4 7.2 28.8 0 13.6-4.8 25.6-15.2 35.2-9.6 9.6-21.6 15.2-35.2 15.2h-101.6c24.8 52 4.8 114.4-8.8 162.4-5.6 20-26.4 31.2-45.6 26.4-20-5.6-13.6-17.6-10.4-37.6 11.2-72-32.8-112.8-69.6-145.6 0 0 0 0 0 0-1.6-1.6-3.2-3.2-4.8-5.6 0-0.8-0.8-0.8-0.8-1.6-1.6-2.4-2.4-5.6-2.4-8.8 0 0 0-0.8 0-0.8s0 0 0-0.8v-207.2c0-4.8 1.6-8.8 4.8-12 1.6-1.6 2.4-2.4 4-3.2v0c0 0 0 0 0.8 0 0.8-0.8 1.6-0.8 2.4-0.8 24-9.6 178.4-69.6 228-20 0 0 0 0 0 0 1.6 1.6 4 3.2 5.6 5.6 10.4 12 14.4 28 12.8 47.2 4 4 7.2 8.8 9.6 13.6 4 7.2 6.4 15.2 6.4 24 0 0 0 0.8 0 0.8 0 5.6 0 11.2-1.6 16 8.8 11.2 14.4 22.4 14.4 36zM184.8 265.333c0 0-0.8 0 0 0-0.8 0 0 0 0 0zM188.8 266.133c0 0-0.8 0-0.8 0s0.8 0 0.8 0z" data-tags="yes" />
<glyph unicode="&#xe610;" d="M271.546 295.212c-8.291-6.219-12.437-10.365-16.583-10.365s-4.145 0-4.145 4.146c0 2.073 0 4.145 2.073 6.219s2.073 6.219 6.218 8.291c2.073 2.073 6.219 6.219 8.291 12.437 0 0 0 2.073 0 2.073s0 2.073-2.073 4.145c-2.073 2.073-2.073 2.073-4.146 2.073s-4.146-2.073-8.291-4.146c-4.145-2.073-8.291-6.219-12.437-12.437-6.219-6.219-10.364-12.437-18.656-18.656v0 0 0 0c-2.073-2.073-4.145-4.145-4.145 0s4.145 10.365 4.145 10.365c4.145 4.145 8.291 8.291 12.437 12.437s6.219 8.291 10.364 14.51 6.219 8.291 8.292 12.437 6.219 8.291 10.365 14.51c4.146 6.219 6.219 12.437 10.365 14.51 2.073 4.146 2.073 6.219 2.073 6.219s0 2.073-2.073 2.073c0 0-2.073 0-4.146 0s-4.146-2.073-8.291-6.219c-4.146-4.145-10.364-12.437-16.583-20.728s-14.51-20.729-24.875-35.239c-4.145-6.219-6.219-12.437-8.292-16.583 0-2.073-2.073-10.365-2.073-10.365 0-10.364 2.073-16.583 6.219-16.583 0 0 2.073 0 4.145 2.073 0 0 4.145 4.146 6.219 8.291 4.145 4.146 6.219 8.291 10.364 12.437 0 2.073 2.073 2.073 4.145 6.219 2.073 2.073 4.145 4.146 6.219 6.219s4.145 4.146 6.219 4.146c-4.145-6.219-8.291-12.437-10.364-18.656s-4.145-10.365-4.145-14.51c0-6.219 2.073-6.219 6.219-6.219 2.073 0 4.145 0 6.219 2.073s6.219 4.146 8.291 6.219c4.146 2.073 6.219 6.219 10.365 10.365 2.073 2.073 2.073 4.145 2.073 6.219zM304.712 282.775c-2.073-2.073-6.219-4.146-8.291-6.219-2.073 0-6.219 0-8.291 0s-4.146 0-6.219 2.073c-2.073 2.073-2.073 4.146-2.073 8.291v2.073c6.219 4.145 12.437 6.219 18.656 10.364s8.291 6.219 10.365 10.365c2.073 4.145 4.146 6.219 4.146 10.364 0 2.073 0 4.146-2.073 6.219-2.073 0-4.146 2.073-6.219 2.073s-6.219 0-10.365-2.073c-4.146-2.073-8.291-4.145-12.437-8.291-6.219-6.219-10.365-10.364-12.437-16.583-2.073-2.073-2.073-6.219-2.073-10.365v0 0c0-2.073 0-4.145 0-6.219v0 0c0-6.219 2.073-12.437 4.146-16.583s6.219-6.219 10.365-6.219c6.219 0 10.365 2.073 14.51 6.219 6.219 4.145 10.365 10.364 16.583 18.656v6.219c-4.146-4.146-6.219-8.292-8.291-10.365zM283.984 303.503c2.073 2.073 4.146 6.219 6.219 6.219s4.146 4.145 6.219 6.219c2.073 0 4.146 2.073 4.146 2.073s2.073 0 2.073-2.073c0 0 0-4.146-2.073-6.219s-4.146-6.219-6.219-8.292c-4.146-2.073-6.219-6.219-12.437-6.219 0 2.073 2.073 6.219 2.073 8.291zM211.433 334.596c0 2.073 2.073 2.073 2.073 2.073s4.145 4.146 6.219 6.219c2.073 4.146 4.145 6.219 4.145 6.219 0 2.073-2.073 2.073-4.145 2.073s-6.219 0-8.292-4.146c-2.073-2.073-8.291-12.437-8.291-12.437-2.073 0-6.219 0-8.291 0-6.219 0-8.291-6.219-12.437-8.291-4.145-4.145-6.219-6.219-6.219-8.291v0c0 0 2.073 0 4.145 0 4.145 2.073 8.292 2.073 12.437 2.073 0-2.073-2.073-4.146-2.073-4.146-8.291-12.437-12.437-24.875-12.437-24.875-2.073-6.219-4.145-10.364-4.145-12.437s0-6.219 0-8.291c0-4.145 0-6.219 2.073-8.291s4.145-2.073 6.219-2.073c6.219 0 18.656 12.437 33.166 29.020 0 2.073 0 6.219 0 6.219-4.145-6.219-10.364-12.437-12.437-14.51-6.219-2.073-10.364-4.145-12.437-4.145s-4.145 2.073-4.145 6.219c0 2.073 0 6.219 2.073 8.291 0 4.146 2.073 6.219 4.145 10.365s4.145 8.291 6.219 12.437c0 0 0 2.073 0 2.073 2.073 0 4.145 0 6.219-2.073 8.292 0 12.437 10.364 16.583 18.656 4.145 4.145-2.073 2.073-10.364 2.073zM290.202 139.746c-12.437-8.291-31.093-12.437-55.968-12.437-37.311 0-66.332 16.583-66.332 62.186 0 43.531 26.947 62.186 64.259 62.186 33.166 0 53.894-14.51 53.894-39.385 0-31.093-37.311-41.457-66.332-33.166 0-10.365 4.145-22.801 18.656-22.801s31.093 0 49.749 12.437v-29.020zM219.725 193.641c10.364-2.073 29.020-2.073 29.020 18.656 0 8.291-4.145 12.437-10.364 12.437-12.437 0-16.583-14.51-18.656-31.093zM404.211 214.37c0 0-26.947 10.365-41.457 8.291-6.219 0-6.219-4.145-6.219-8.291 0-12.437 58.041-6.219 62.186-45.603 2.073-24.875-18.656-41.457-47.676-43.531-41.457-2.073-64.259 12.437-64.259 12.437v29.020c0 0 18.656-16.583 53.894-12.437 4.146 0 6.219 4.146 6.219 6.219 0 14.51-53.894 8.291-55.967 47.676-2.073 24.875 22.801 41.458 49.749 43.531 29.020 2.073 45.603-6.219 45.603-6.219l-2.073-31.093c0 0 0 0 0 0zM1065.457 137.673c-8.292-6.219-26.947-12.437-45.603-12.437-29.020 0-51.822 14.51-51.822 47.676 0 12.437 0 35.239 0 43.531-12.437 0-16.583 0-16.583 0v16.583c0 0 16.583 4.145 31.093 20.728 20.729 22.801 22.802 33.166 22.802 33.166h16.583v-37.312h35.239l-2.073-35.239c0 0-16.583 0-33.166 0 0-14.51 0-39.385 0-41.458 0-12.437 0-16.583 12.437-16.583 10.364 0 16.583 4.146 20.728 6.219 0 0 0-6.219 4.146-12.437 0-6.219 6.218-12.437 6.218-12.437zM1208.486 187.422c0-37.312-26.947-62.186-72.551-62.186s-70.477 24.875-70.477 64.259c0 39.385 26.947 62.186 72.551 62.186 43.531 0 70.477-24.875 70.477-64.259zM1138.008 156.329c16.583 0 20.728 14.51 20.728 29.020 0 16.583-6.218 31.093-20.728 31.093s-18.656-10.365-18.656-31.093c-2.073-14.51 4.146-29.020 18.656-29.020zM1326.639 247.536l-10.364-51.822c-6.218 2.073-14.51 6.219-24.874 6.219s-18.656-4.146-18.656-24.875c0-16.583 0-35.239 2.073-49.749h-51.822c0 0 2.073 18.656 2.073 60.113 0 10.365 0 47.676-2.073 55.968h49.749c0-6.219 0-24.875 0-31.093 4.146 10.365 12.437 37.312 35.239 37.312 6.218 2.073 12.437 0 18.656-2.073zM941.085 208.151c0 26.947-16.583 43.531-55.967 43.531-24.875 0-43.53-6.219-55.967-16.583 2.073-6.219 4.145-14.51 4.145-24.875 0-2.073 0-4.146 0-6.219 0 0 0-2.073 0-2.073 6.218 4.146 29.020 16.583 45.603 16.583 10.365 0 16.583-4.146 16.583-12.437 0-12.437-39.385-6.219-62.186-24.875-8.292-6.219-14.51-14.51-14.51-29.020 0-12.437 6.218-20.728 14.51-24.875 6.218-4.146 14.51-6.219 22.802-6.219 31.093 0 39.385 14.51 43.53 26.947v-24.875h47.676c-2.073 6.219-6.218 60.113-6.218 84.988zM874.753 156.329c-8.292 0-10.365 4.146-10.365 10.365 0 12.437 14.51 18.656 31.093 18.656 2.073-10.365 0-29.020-20.729-29.020zM153.393 174.985v0c0 0-18.656 0-31.093 24.875 0 0 2.073 0 4.145 4.146 6.218 6.219 26.948 24.875 26.948 49.749 0 47.676-45.603 55.967-91.207 55.967h-62.186c0 0 2.073-64.259 2.073-93.279 0-39.385 0-89.134 0-89.134h58.041c0 22.801 0 35.239 0 55.967 0 0 6.218 0 12.437 2.073 10.365-31.093 24.874-55.967 62.186-58.041 16.583 0 33.166 0 39.385 2.073-10.364 8.291-18.656 24.875-20.728 45.603zM58.041 214.37c0 14.51 0 35.239 0 53.894 12.437 0 33.166 2.073 33.166-22.801 2.073-26.947-20.728-31.093-33.166-31.093zM559.676 156.329c0-8.291 0-16.583 2.073-26.947h-53.894v18.656c-4.146-10.365-14.51-20.728-37.312-20.728-24.875 0-41.457 16.583-41.457 47.676 0 20.728 0 62.186 0 74.624h51.822c0-12.437 0-39.385 0-58.041s2.073-31.093 16.583-31.093 12.437 14.51 12.437 31.093c0 18.656 0 43.531 0 58.041h51.822c0-2.073-2.073-49.749-2.073-93.279zM752.453 129.382c0 14.51 0 41.457 0 60.113s-6.218 26.947-18.656 29.020c-12.437 0-16.583-12.437-18.656-29.020 0-20.728 0-47.676 2.073-62.186h-53.894c0 14.51 2.073 41.457 2.073 62.186 0 18.656-6.218 29.020-16.583 29.020-14.51 0-16.583-12.437-18.656-29.020 0-18.656 0-45.603 2.073-62.186h-51.822c0 0 2.073 49.749 2.073 95.352 0 8.291 0 14.51 0 24.875h51.822c0-6.219 0-12.437 0-18.656 6.218 14.51 18.656 20.728 39.385 20.728 22.802 0 33.166-12.437 37.312-26.947 0-4.146 0 6.219 14.51 16.583 8.292 6.219 18.656 8.291 37.312 10.365 18.656 0 39.385-12.437 39.385-41.458 0-20.728 0-68.405 2.073-82.915l-51.822 4.146z" horiz-adv-x="1327" data-tags="ther-full" />
<glyph unicode="&#xe611;" d="M455.2 201.333v0c-1.6 1.6-48.8-12.8-83.2 19.2-6.4-9.6-16-17.6-26.4-21.6-9.6-3.2-21.6-3.2-29.6 4.8-9.6 6.4-17.6 17.6-23.2 34.4 0 1.6 0 1.6-1.6 3.2v0c0 1.6 0 3.2-1.6 4.8-4.8-9.6-8-19.2-12.8-26.4-4.8-9.6-9.6-17.6-14.4-24.8-4.8-6.4-8-9.6-12.8-11.2-9.6-3.2-16 0-21.6 11.2-3.2 9.6-4.8 21.6-3.2 36s4.8 32.8 8 52c-4.8-4.8-8-11.2-11.2-16-3.2-6.4-6.4-11.2-8-17.6s-3.2-11.2-4.8-14.4c-4.8-11.2-8-24.8-11.2-37.6s-6.4-21.6-8-24.8c-1.6-3.2-3.2-6.4-4.8-6.4-8-3.2-17.6 6.4-26.4 28-16-44-32.8-76.8-45.6-81.6-1.6-1.6-4.8-1.6-6.4-1.6 26.4-72 50.4-140 50.4-140l128.8 48.8c-21.6 52-31.2 75.2-47.2 119.2 0 0 21.6 3.2 31.2 12.8 48.8-60 116-86.4 184-67.2 29.6 8 47.2 17.6 58.4 24.8-28 16.8-50.4 65.6-56.8 92zM344 341.333c-1.6 3.2-3.2 4.8-4.8 3.2-1.6 0-4.8-3.2-8-8s-6.4-11.2-9.6-17.6c-3.2-6.4-4.8-14.4-6.4-23.2-1.6-8-1.6-16 0-24.8 8 8 16 17.6 21.6 28 4.8 9.6 8 17.6 9.6 26.4-0.8 8-0.8 12.8-2.4 16zM229.6 436.533c-1.6-8-4.8-23.2-8-42.4-4.8-21.6-8-34.4-9.6-42.4s-4.8-19.2-9.6-36-8-29.6-12.8-42.4c-3.2-12.8-8-26.4-14.4-40.8 0 0-6.4-19.2-1.6-28 3.2-6.4 8-1.6 9.6 4.8v0 0 0 0c9.6 24.8 17.6 44 24.8 60 8 16 14.4 29.6 19.2 39.2 6.4 9.6 11.2 14.4 14.4 16s8 0 12.8-3.2c4.8-3.2 8-6.4 8-9.6 0-1.6 0-3.2 0-4.8-4.8-14.4-8-26.4-11.2-34.4-3.2-9.6-3.2-16-4.8-23.2 0-6.4 0-11.2 1.6-16 1.6-6.4 6.4-8 11.2-4.8 4.8 1.6 14.4 12.8 26.4 32.8 0 6.4-1.6 11.2 0 17.6 1.6 12.8 6.4 29.6 14.4 47.2 4.8 11.2 11.2 21.6 19.2 29.6 6.4 8 14.4 12.8 21.6 14.4 4.8 1.6 9.6 1.6 14.4 0s8-4.8 9.6-11.2c3.2-8 3.2-17.6 1.6-28-1.6-9.6-8-21.6-16-34.4s-19.2-26.4-32.8-39.2l2.4-4c3.2-8 6.4-12.8 11.2-16s9.6-3.2 16-1.6c6.4 1.6 11.2 6.4 16 11.2s9.6 11.2 12.8 19.2c1.6 1.6 1.6 4.8 3.2 6.4 9.6 28 17.6 65.6 4.8 102.4-26.4 73.6-88 86.4-156.8 76.8 4-2.4 4-8.8 2.4-15.2zM88 259.733c-9.6-3.2-21.6-6.4-28-14.4 0 0-3.2-3.2-4.8-3.2 9.6-23.2 17.6-45.6 24.8-63.2 0 1.6 0 1.6 0 3.2 0 0 0 32.8 6.4 67.2 0 0.8 1.6 5.6 1.6 10.4zM58.4 266.933c3.2 9.6 8 24.8 19.2 29.6 3.2 1.6 11.2 3.2 17.6 4.8 0 1.6 4.8 29.6 8 36s8 11.2 14.4 14.4 9.6 1.6 11.2-1.6c0-1.6 0-6.4-3.2-16-1.6-6.4-4.8-21.6-4.8-21.6 0-3.2-1.6-3.2-1.6-8 16 4.8 29.6 17.6 29.6 14.4-1.6-21.6-1.6-48.8-23.2-55.2-4.8-1.6-11.2-1.6-17.6-3.2 0-1.6-1.6-4.8-1.6-6.4-1.6-12.8-3.2-26.4-4.8-36-1.6-11.2-1.6-19.2 0-29.6 0-8 1.6-16 4.8-23.2 3.2-9.6 8-12.8 14.4-9.6 4.8 1.6 9.6 8 14.4 16 3.2 6.4 11.2 21.6 16 36-1.6 4.8-1.6 8-1.6 11.2-1.6 9.6 0 26.4 4.8 45.6 8 40.8 16 75.2 24.8 100.8 6.4 26.4 12.8 47.2 19.2 61.6 3.2 6.4 4.8 11.2 6.4 14.4-20.8-3.2-44.8-11.2-68-20l-136.8-52c0 0 28-65.6 52-127.2 1.6 9.6 3.2 16 6.4 24.8z" data-tags="ther" />
<glyph unicode="&#xe612;" d="M184.8 234.133c-5.6-5.6-8-12.8-8-20.8s2.4-15.2 8-20.8l148-148c5.6-5.6 12.8-8 20.8-8s15.2 2.4 20.8 8l17.6 17.6c5.6 5.6 8.8 12.8 8.8 20.8s-3.2 15.2-8.8 20.8l-66.4 66.4h160.8c8 0 13.6 2.4 19.2 8 4.8 5.6 7.2 12.8 7.2 20.8v28.8c0 8-2.4 15.2-7.2 20.8s-11.2 8-19.2 8h-161.6l66.4 66.4c5.6 5.6 8.8 12.8 8.8 20.8s-3.2 15.2-8.8 20.8l-16.8 16.8c-5.6 5.6-12.8 8.8-20.8 8.8s-15.2-3.2-20.8-8.8l-148-147.2zM84.8 366.933v-306.4c0-23.2-19.2-42.4-42.4-42.4s-42.4 19.2-42.4 41.6v306.4c0 23.2 19.2 43.2 42.4 43.2s42.4-20 42.4-42.4z" data-tags="push-left" />
<glyph unicode="&#xe613;" d="M327.2 192.533c5.6 5.6 8 12.8 8 20.8s-2.4 15.2-8 20.8l-148 148c-5.6 5.6-12.8 8-20.8 8s-15.2-2.4-20.8-8l-17.6-17.6c-5.6-5.6-8.8-12.8-8.8-20.8s3.2-15.2 8.8-20.8l66.4-66.4h-160c-8 0-13.6-2.4-19.2-8-4.8-5.6-7.2-12-7.2-20v-28.8c0-8 2.4-15.2 7.2-20.8s11.2-8 19.2-8h160.8l-66.4-66.4c-5.6-5.6-8.8-12.8-8.8-20.8s3.2-15.2 8.8-20.8l17.6-17.6c5.6-5.6 12.8-8.8 20.8-8.8s15.2 3.2 20.8 8.8l147.2 147.2zM427.2 59.733v307.2c0 23.2 19.2 42.4 42.4 42.4s42.4-19.2 42.4-42.4v-306.4c0-23.2-19.2-42.4-42.4-42.4-23.2-0.8-42.4 19.2-42.4 41.6z" data-tags="push-right" />
<glyph unicode="&#xe614;" d="M207.256 237.188h44.671l-44.671-45.511v-30.642h91.862v30.642h-48.808l48.808 45.511v31.418h-91.863zM394.279 237.188v31.418h-91.022v-31.418h44.671l-44.671-45.511v-30.642h92.25v30.642h-49.196zM171.313 254.966h-0.388c-6.206 9.956-16.549 15.321-30.643 15.321-23.144 0-41.374-14.481-48.42-36.008v55.855h-40.921v-84.816c0-16.161-10.343-31.418-26.052-31.418h-24.889v-36.849h24.824c38.465 0 64.517 23.984 67.038 58.311 6.594-21.915 25.212-36.849 48.808-36.849 14.093 0 24.436 5.365 30.643 15.321h0.388l1.228-12.8h30.19v107.572h-30.19l-1.616-13.64zM144.42 191.677c-12.412 0-22.755 10.344-22.755 22.756s10.343 22.755 22.755 22.755 22.756-10.344 22.756-22.755c0-12.412-10.344-22.756-22.756-22.756z" horiz-adv-x="396" data-tags="jazz" />
<glyph unicode="&#xe615;" d="M515.297 265.18c-8.986 8.921-19.652 13.447-31.87 13.447h-91.281c22.303 47.063 4.202 102.788-7.757 146.166-4.913 17.907-23.402 28.315-41.309 23.466-17.907-4.913-12.283-15.515-9.373-33.875 7.046-45.382-10.344-76.8-32.776-101.689 4.59-22.497 7.176-46.351 4.008-70.206h53.269c19.782 0 37.883-7.628 52.234-21.915 14.287-14.287 21.915-32.323 21.915-52.235 0-13.64-3.103-26.44-9.115-38.012 1.616-5.947 2.392-12.089 2.392-18.295 0-13.64-3.814-26.764-11.055-38.142 0.194-2.198 0.194-4.332 0.065-6.594v-0.647c0-11.701-3.038-23.144-8.469-33.422 29.996-2.521 57.6 1.034 73.373 16.808 0.065 0.065 0.194 0.194 0.259 0.259 1.745 1.487 3.426 3.168 4.913 4.913 9.115 10.861 12.93 25.083 11.507 42.731 3.685 3.491 6.594 7.628 8.921 12.218 3.685 6.271 5.818 13.511 5.818 21.398 0 0.259 0 0.517 0 0.647 0.259 4.913-0.323 9.762-1.681 14.546 7.757 7.693 12.606 18.36 12.606 30.19 0 7.887-2.198 15.192-5.947 21.592 0.064 0.065 0.194 0.259 0.259 0.323 0.582 0.647 1.099 1.358 1.616 2.004 0.388 0.582 0.841 1.099 1.229 1.681s0.776 1.163 1.163 1.745c0.582 0.905 1.163 1.94 1.745 2.909 0 0 0.064 0.065 0.064 0.194 4.332 7.757 6.529 16.356 6.529 25.988 0.194 12.154-4.332 22.756-13.253 31.806zM358.271 213.592h-91.151c11.119 23.466 12.218 49.131 8.921 74.408s-10.796 50.036-16.743 71.822c-4.913 17.907-23.402 28.315-41.309 23.466-17.907-4.913-12.283-15.515-9.374-33.875 10.020-64.776-29.738-101.107-62.707-130.909l0.065-0.065c-1.616-1.422-2.909-3.038-4.008-4.849-0.258-0.388-0.517-0.841-0.647-1.228-1.228-2.521-2.004-5.236-2.198-8.081 0-0.259 0-0.517 0-0.776 0-0.194 0-0.323 0-0.517v-185.858c0-4.072 1.487-7.628 4.525-10.538 1.099-1.099 2.327-1.94 3.62-2.586h-0.065c0 0 0.194-0.065 0.582-0.259 0.647-0.323 1.422-0.647 2.198-0.905 21.204-8.598 159.87-62.578 204.671-17.778 0.065 0.065 0.194 0.194 0.259 0.259 1.745 1.487 3.426 3.168 4.913 4.913 9.115 10.861 12.93 25.083 11.507 42.731 1.487 1.422 2.78 3.038 4.008 4.59 1.81 2.327 3.491 4.849 4.913 7.628 3.685 6.271 5.818 13.511 5.818 21.398 0 0.259 0 0.517 0 0.647 0.259 4.913-0.323 9.762-1.681 14.546 7.757 7.693 12.606 18.36 12.606 30.19 0 7.887-2.198 15.192-5.947 21.592 0.065 0.065 0.194 0.259 0.259 0.323 0.582 0.647 1.099 1.358 1.616 2.004 0.388 0.582 0.841 1.099 1.228 1.681s0.776 1.163 1.163 1.745c0.582 0.905 1.163 1.94 1.745 2.909 0 0.065 0.065 0.065 0.065 0.194 4.332 7.757 6.529 16.356 6.529 25.988 0 12.283-4.526 22.885-13.447 31.935-9.050 8.792-19.652 13.252-31.935 13.252zM110.222 214.238c-3.168 3.167-6.853 4.654-11.119 4.654h-53.462c-4.267 0-8.016-1.616-11.119-4.654-3.168-3.168-4.654-6.853-4.654-11.119v-188.38c0-4.267 1.616-8.016 4.654-11.119 3.167-3.168 6.852-4.654 11.119-4.654h53.462c1.358 0 2.65 0.259 3.944 0.517 2.65 0.647 5.107 2.004 7.24 4.202 3.168 3.168 4.654 6.853 4.654 11.119v188.25c0 3.685-1.228 6.917-3.491 9.762-0.453 0.452-0.776 0.97-1.228 1.422z" horiz-adv-x="559" data-tags="double-yes" />
<glyph unicode="&#xe616;" d="M43.313 151.725c8.921-8.921 19.653-13.447 31.871-13.447h91.281c-22.303-47.063-4.202-102.788 7.757-146.166 4.913-17.907 23.402-28.315 41.309-23.466 17.907 4.913 12.283 15.515 9.374 33.875-7.047 45.382 10.344 76.8 32.776 101.689-4.59 22.497-7.176 46.351-4.008 70.206h-53.268c-19.782 0-37.883 7.628-52.234 21.915-14.287 14.287-21.915 32.323-21.915 52.235 0 13.64 3.103 26.44 9.115 38.012-1.616 5.947-2.392 12.089-2.392 18.295 0 13.641 3.814 26.764 11.054 38.142-0.194 2.198-0.194 4.332-0.065 6.594v0.647c0 11.701 3.038 23.144 8.469 33.422-29.996 2.521-57.6-1.034-73.374-16.808-0.064-0.065-0.194-0.194-0.258-0.259-1.746-1.487-3.427-3.168-4.913-4.913-9.115-10.861-12.93-25.083-11.507-42.731-3.685-3.491-6.594-7.628-8.921-12.218-3.685-6.271-5.818-13.511-5.818-21.398 0-0.258 0-0.517 0-0.647-0.258-4.913 0.323-9.762 1.681-14.546-7.758-7.693-12.606-18.359-12.606-30.19 0-7.887 2.198-15.192 5.947-21.592-0.065-0.065-0.194-0.258-0.258-0.323-0.582-0.647-1.099-1.358-1.616-2.004-0.388-0.582-0.84-1.099-1.228-1.681s-0.776-1.164-1.163-1.746c-0.582-0.905-1.163-1.94-1.745-2.909 0 0-0.065-0.065-0.065-0.194-4.331-7.757-6.529-16.356-6.529-25.988-0.194-12.154 4.331-22.755 13.252-31.806zM200.339 203.313h91.151c-11.119-23.466-12.218-49.132-8.921-74.408s10.796-50.036 16.743-71.757c4.913-17.907 23.402-28.315 41.309-23.466 17.907 4.913 12.283 15.515 9.373 33.875-10.020 64.776 29.738 101.107 62.707 130.909l-0.065 0.065c1.616 1.422 2.909 3.038 4.008 4.849 0.259 0.388 0.517 0.841 0.647 1.228 1.228 2.521 2.004 5.236 2.198 8.081 0 0.259 0 0.517 0 0.776 0 0.194 0 0.323 0 0.517v185.794c0 4.072-1.487 7.628-4.526 10.537-1.099 1.099-2.327 1.94-3.62 2.586h0.065c0 0-0.194 0.065-0.582 0.259-0.647 0.323-1.422 0.647-2.198 0.905-21.204 8.598-159.87 62.578-204.671 17.778-0.065-0.065-0.194-0.194-0.258-0.259-1.745-1.487-3.427-3.167-4.913-4.913-9.115-10.861-12.929-25.083-11.507-42.732-1.487-1.422-2.78-3.038-4.008-4.59-1.81-2.327-3.491-4.849-4.913-7.629-3.685-6.27-5.818-13.511-5.818-21.398 0-0.259 0-0.517 0-0.647-0.258-4.913 0.323-9.762 1.681-14.546-7.757-7.693-12.606-18.36-12.606-30.19 0-7.887 2.198-15.192 5.947-21.592-0.065-0.065-0.194-0.258-0.258-0.323-0.582-0.647-1.099-1.358-1.616-2.004-0.388-0.582-0.84-1.099-1.228-1.681s-0.776-1.163-1.163-1.745c-0.582-0.905-1.163-1.94-1.745-2.909 0-0.065-0.065-0.065-0.065-0.194-4.332-7.757-6.53-16.356-6.53-25.988 0-12.283 4.525-22.885 13.446-31.935 9.050-8.792 19.653-13.252 31.935-13.252zM448.388 202.667c3.168-3.168 6.853-4.654 11.119-4.654h53.462c4.266 0 8.016 1.616 11.119 4.654 3.168 3.168 4.654 6.853 4.654 11.119v188.38c0 4.267-1.616 8.016-4.654 11.119-3.168 3.168-6.852 4.655-11.119 4.655h-53.462c-1.358 0-2.651-0.259-3.943-0.517-2.651-0.647-5.107-2.004-7.24-4.202-3.168-3.167-4.654-6.852-4.654-11.119v-188.25c0-3.685 1.228-6.917 3.491-9.762 0.452-0.452 0.776-0.969 1.228-1.422z" horiz-adv-x="559" data-tags="double-no" />
</font>
</defs>
</svg>
